<svg id="Layer_1" data-name="Layer 1" xmlns="http://www.w3.org/2000/svg" xmlns:xlink="http://www.w3.org/1999/xlink" viewBox="0 0 261.58 210.98"><defs><style>.cls-1,.cls-2,.cls-3,.cls-4,.cls-5{fill:none;stroke-miterlimit:10;}.cls-1,.cls-4,.cls-5{stroke-width:7.22px;}.cls-1{stroke:url(#linear-gradient);}.cls-2,.cls-3{stroke-width:2.41px;}.cls-2{stroke:url(#Orange_Yellow);}.cls-3{stroke:url(#linear-gradient-2);}.cls-4{stroke:url(#linear-gradient-3);}.cls-5{stroke:url(#linear-gradient-4);}</style><linearGradient id="linear-gradient" x1="140.23" y1="265.9" x2="390.27" y2="265.9" gradientUnits="userSpaceOnUse"><stop offset="0" stop-color="#0096c7"/><stop offset="0.13" stop-color="#047da8"/><stop offset="0.29" stop-color="#086186"/><stop offset="0.46" stop-color="#0b4c6b"/><stop offset="0.63" stop-color="#0d3c58"/><stop offset="0.81" stop-color="#0f334d"/><stop offset="1" stop-color="#0f3049"/></linearGradient><linearGradient id="Orange_Yellow" x1="153.51" y1="246.51" x2="364.49" y2="246.51" gradientUnits="userSpaceOnUse"><stop offset="0" stop-color="#fff33b"/><stop offset="0.04" stop-color="#fee72e"/><stop offset="0.12" stop-color="#fed51b"/><stop offset="0.2" stop-color="#fdca10"/><stop offset="0.28" stop-color="#fdc70c"/><stop offset="0.67" stop-color="#f3903f"/><stop offset="0.89" stop-color="#ed683c"/><stop offset="1" stop-color="#e93e3a"/></linearGradient><linearGradient id="linear-gradient-2" x1="153.51" y1="246.51" x2="364.49" y2="246.51" gradientUnits="userSpaceOnUse"><stop offset="0" stop-color="#00b6e1"/><stop offset="0.37" stop-color="#163e69"/><stop offset="0.66" stop-color="#ed683c"/><stop offset="0.98" stop-color="#e93e3a"/></linearGradient><linearGradient id="linear-gradient-3" x1="133.91" y1="248.9" x2="383.95" y2="248.9" gradientUnits="userSpaceOnUse"><stop offset="0.13" stop-color="#2a3592"/><stop offset="1" stop-color="#e93e3a"/></linearGradient><linearGradient id="linear-gradient-4" x1="128.69" y1="235.59" x2="378.73" y2="235.59" gradientUnits="userSpaceOnUse"><stop offset="0.47" stop-color="#956584"/><stop offset="0.57" stop-color="#745d8f"/><stop offset="0.67" stop-color="#595797"/><stop offset="0.78" stop-color="#46539d"/><stop offset="0.88" stop-color="#3b50a1"/><stop offset="1" stop-color="#374fa2"/></linearGradient></defs><path class="cls-1" d="M279.43,321.73c-66.59,16.9-126.92,5.62-134.75-25.21s39.8-69.52,106.39-86.43c36.77-9.34,71.62-10.09,96.77-3.69,1.15.29,2.25.59,3.35.91,18.6,5.38,31.31,14.93,34.63,28C393.65,266.11,346,304.81,279.43,321.73Z" transform="translate(-128.69 -141.02)"/><path class="cls-2" d="M336.75,177a.32.32,0,0,1-.08-.09,103.59,103.59,0,1,0,8.14,10.29" transform="translate(-128.69 -141.02)"/><path class="cls-3" d="M336.75,177a.32.32,0,0,1-.08-.09,103.59,103.59,0,1,0,8.14,10.29" transform="translate(-128.69 -141.02)"/><path class="cls-4" d="M273.11,304.72c-66.59,16.91-126.92,5.63-134.75-25.21S178.17,210,244.75,193.08c36.77-9.34,71.62-10.09,96.78-3.69,1.14.29,2.25.59,3.34.91,18.6,5.38,31.32,14.93,34.63,28C387.33,249.1,339.7,287.8,273.11,304.72Z" transform="translate(-128.69 -141.02)"/><path class="cls-5" d="M267.89,291.42C201.3,308.33,141,297,133.14,266.21s39.8-69.52,106.39-86.43c36.76-9.34,71.61-10.09,96.77-3.69,1.14.29,2.25.59,3.35.91,18.6,5.38,31.31,14.93,34.63,28C382.11,235.8,334.47,274.5,267.89,291.42Z" transform="translate(-128.69 -141.02)"/></svg>